<?xml version="1.0" encoding="utf-8"?>
<!-- Generator: Adobe Illustrator 27.5.0, SVG Export Plug-In . SVG Version: 6.00 Build 0)  -->
<svg version="1.1" xmlns="http://www.w3.org/2000/svg" xmlns:xlink="http://www.w3.org/1999/xlink" x="0px" y="0px"
	 viewBox="0 0 500 500" style="enable-background:new 0 0 500 500;" xml:space="preserve">
<g id="BACKGROUND">
	<rect style="fill:#C6E6FF;" width="500" height="500"/>
</g>
<g id="OBJECTS">
	<g>
		<g>
			<path style="fill:#FFFFFF;" d="M32.494,249.987c-0.955-0.226-1.944-0.453-2.911-0.276c-0.965,0.177-1.908,0.87-2.055,1.841
				c-0.153,1.008,0.607,1.976,1.532,2.404c0.925,0.428,1.982,0.439,3.001,0.444c22.099,0.085,44.198,0.171,66.295,0.256
				c4.122,0.016,8.251,0.032,12.353-0.362c1.439-0.138,2.926-0.345,4.144-1.123c1.217-0.779,2.085-2.285,1.687-3.674
				c-0.611-2.132-3.532-2.547-6.394-1.95c1.703-3.365,0.77-7.852-2.134-10.259c-2.903-2.408-7.485-2.493-10.907-0.337
				c0.243-3.448,0.397-6.924-0.055-10.351c-0.452-3.426-1.542-6.826-3.59-9.612c-4.295-5.839-12.5-8.082-19.504-6.212
				c-2.619,0.699-5.152,1.943-6.994,3.933c-1.312,1.418-2.223,3.154-3.385,4.697c-1.162,1.544-2.701,2.958-4.607,3.282
				c-2.219,0.377-4.455-0.796-6.695-0.577c-2.497,0.243-4.594,2.273-5.371,4.657c-0.777,2.385-0.39,5.031,0.103,8.391
				c-2.265-1.54-4.764-2.847-7.475-3.238c-2.712-0.389-5.672,0.253-7.629,2.169c-1.865,1.827-2.6,4.598-2.363,7.197
				C29.777,243.887,30.888,246.336,32.494,249.987z"/>
			<path style="fill:#FFFFFF;" d="M453.729,151.775c1.199-0.284,2.44-0.569,3.654-0.346c1.211,0.222,2.395,1.092,2.579,2.311
				c0.191,1.266-0.761,2.481-1.923,3.018c-1.162,0.538-2.488,0.551-3.768,0.557c-27.742,0.107-55.483,0.215-83.223,0.321
				c-5.174,0.02-10.357,0.04-15.508-0.454c-1.806-0.173-3.673-0.434-5.202-1.41c-1.528-0.978-2.617-2.868-2.118-4.612
				c0.767-2.676,4.433-3.197,8.027-2.448c-2.139-4.224-0.967-9.857,2.679-12.879c3.645-3.022,9.396-3.129,13.692-0.423
				c-0.305-4.328-0.498-8.692,0.069-12.994c0.568-4.301,1.936-8.57,4.506-12.066c5.392-7.33,15.692-10.146,24.484-7.798
				c3.287,0.877,6.468,2.439,8.779,4.938c1.647,1.78,2.79,3.959,4.249,5.896c1.459,1.938,3.391,3.714,5.783,4.119
				c2.786,0.473,5.592-0.999,8.405-0.725c3.134,0.305,5.767,2.853,6.743,5.846c0.975,2.994,0.49,6.315-0.13,10.533
				c2.844-1.933,5.981-3.575,9.384-4.064c3.404-0.489,7.12,0.318,9.577,2.723c2.341,2.293,3.263,5.772,2.966,9.035
				C457.139,144.117,455.745,147.192,453.729,151.775z"/>
			<path style="fill:#FFFFFF;" d="M180.191,112.324c3.219-3.575,8.716-4.885,13.201-3.146c2.444,0.947,4.743,3.132,4.565,5.748
				c-0.142,2.08-1.848,3.788-3.783,4.565c-1.934,0.777-4.075,0.805-6.16,0.823c-10.99,0.092-21.979,0.185-32.969,0.277
				c-19.229,0.162-38.456,0.324-57.684,0.485c-1.654,0.014-3.342,0.023-4.917-0.484c-1.575-0.506-3.046-1.627-3.536-3.206
				c-0.47-1.519,0.109-3.303,1.381-4.256c1.273-0.953,3.148-1.005,4.8-0.534c-0.554-3.156,0.775-6.569,3.317-8.521
				c2.541-1.951,6.182-2.353,9.607-1.17c-1.102-4.308,0.604-9.2,4.146-11.888c3.542-2.688,8.712-3.015,12.565-0.794
				c2.184,1.259,4.26,3.327,6.76,2.997c1.959-0.258,3.428-1.992,4.146-3.833c0.718-1.841,0.878-3.847,1.385-5.756
				c1.619-6.098,7.104-10.979,13.348-11.883c6.244-0.903,12.887,2.226,16.168,7.615c3.281,5.389,3.01,12.727-1.133,18.554
				c1.874-0.676,3.766-1.356,5.741-1.62c1.975-0.265,4.065-0.087,5.81,0.875c2.288,1.262,3.72,3.752,4.181,6.324
				C181.592,106.069,181.188,108.722,180.191,112.324z"/>
			<path style="fill:#FFFFFF;" d="M355.611,357.562c-3.219-3.575-8.716-4.885-13.201-3.146c-2.444,0.947-4.743,3.132-4.565,5.748
				c0.142,2.079,1.848,3.788,3.783,4.565c1.934,0.777,4.075,0.806,6.16,0.823c10.99,0.092,21.979,0.185,32.969,0.277
				c19.229,0.162,38.456,0.324,57.684,0.485c1.654,0.014,3.342,0.023,4.917-0.484c1.575-0.506,3.046-1.627,3.536-3.206
				c0.47-1.519-0.109-3.303-1.381-4.256c-1.273-0.953-3.148-1.005-4.8-0.534c0.554-3.156-0.775-6.569-3.317-8.521
				c-2.541-1.951-6.182-2.353-9.607-1.17c1.102-4.308-0.604-9.2-4.146-11.888c-3.542-2.688-8.712-3.015-12.565-0.794
				c-2.185,1.258-4.26,3.327-6.76,2.997c-1.959-0.258-3.428-1.992-4.146-3.833c-0.718-1.841-0.878-3.847-1.385-5.756
				c-1.619-6.098-7.104-10.979-13.348-11.883c-6.244-0.903-12.887,2.226-16.168,7.615c-3.281,5.389-3.01,12.727,1.133,18.554
				c-1.874-0.676-3.766-1.356-5.741-1.62c-1.975-0.265-4.065-0.087-5.81,0.875c-2.288,1.262-3.72,3.752-4.181,6.324
				C354.21,351.307,354.614,353.96,355.611,357.562z"/>
		</g>
		<g>
			<path style="fill:#A8D9FF;" d="M62.462,330.43c-2.199,1.24-5.179,0.9-7.041-0.805c-1.33-1.216-2.068-3.05-1.966-4.85
				c0.157-2.745,2.371-5.24,5.08-5.719c2.708-0.48,5.645,1.104,6.733,3.63C66.356,325.212,65.621,328.649,62.462,330.43z"/>
			<path style="fill:#A8D9FF;" d="M411.816,188.83c-2.199,1.24-5.179,0.9-7.041-0.805c-1.33-1.216-2.069-3.05-1.966-4.85
				c0.156-2.745,2.371-5.24,5.08-5.719c2.708-0.48,5.645,1.104,6.733,3.63C415.71,183.612,414.976,187.049,411.816,188.83z"/>
			<path style="fill:#A8D9FF;" d="M68.28,307.434c-0.888,0.501-2.092,0.364-2.845-0.326c-0.538-0.492-0.836-1.231-0.794-1.958
				c0.063-1.11,0.957-2.117,2.052-2.312c1.095-0.193,2.28,0.446,2.72,1.467C69.853,305.326,69.557,306.714,68.28,307.434z"/>
			<path style="fill:#A8D9FF;" d="M66.899,173.033c-0.888,0.501-2.092,0.364-2.844-0.326c-0.538-0.492-0.836-1.231-0.795-1.958
				c0.063-1.11,0.957-2.117,2.052-2.311c1.095-0.193,2.28,0.445,2.72,1.467C68.472,170.925,68.176,172.313,66.899,173.033z"/>
			<path style="fill:#A8D9FF;" d="M178.09,144.376c-0.888,0.501-2.091,0.364-2.844-0.326c-0.538-0.491-0.836-1.232-0.795-1.958
				c0.064-1.11,0.958-2.117,2.052-2.311c1.095-0.193,2.28,0.447,2.72,1.466C179.664,142.268,179.367,143.656,178.09,144.376z"/>
			<path style="fill:#A8D9FF;" d="M39.086,421.122c-0.888,0.501-2.091,0.364-2.844-0.326c-0.538-0.492-0.836-1.232-0.794-1.958
				c0.063-1.111,0.958-2.117,2.052-2.311c1.094-0.193,2.28,0.446,2.72,1.466C40.659,419.014,40.363,420.402,39.086,421.122z"/>
			<path style="fill:#A8D9FF;" d="M352.076,96.542c-0.888,0.501-2.092,0.364-2.845-0.326c-0.538-0.491-0.835-1.232-0.794-1.958
				c0.063-1.11,0.958-2.117,2.052-2.312c1.095-0.193,2.281,0.447,2.72,1.466C353.649,94.434,353.353,95.822,352.076,96.542z"/>
			<path style="fill:#A8D9FF;" d="M65.796,387.755c-0.888,0.501-2.091,0.364-2.845-0.326c-0.538-0.491-0.835-1.232-0.794-1.958
				c0.063-1.11,0.958-2.117,2.052-2.311c1.095-0.193,2.281,0.446,2.72,1.466C67.37,385.647,67.073,387.035,65.796,387.755z"/>
			<path style="fill:#A8D9FF;" d="M443.582,317.579c-0.888,0.501-2.091,0.364-2.845-0.326c-0.538-0.492-0.835-1.231-0.794-1.958
				c0.064-1.11,0.958-2.117,2.052-2.311c1.095-0.194,2.281,0.445,2.72,1.466C445.155,315.471,444.859,316.859,443.582,317.579z"/>
			<path style="fill:#A8D9FF;" d="M433.285,198.43c-0.888,0.501-2.091,0.364-2.845-0.326c-0.538-0.492-0.835-1.231-0.794-1.958
				c0.064-1.11,0.958-2.117,2.052-2.311c1.095-0.194,2.281,0.446,2.72,1.466C434.858,196.322,434.562,197.71,433.285,198.43z"/>
			<path style="fill:#A8D9FF;" d="M461.072,408.287c-0.888,0.501-2.091,0.364-2.845-0.326c-0.538-0.492-0.835-1.232-0.794-1.959
				c0.064-1.11,0.958-2.116,2.052-2.311c1.095-0.193,2.281,0.446,2.72,1.467C462.646,406.179,462.349,407.568,461.072,408.287z"/>
			<path style="fill:#A8D9FF;" d="M449.761,333.495c-1.516-1.093-3.714-1.136-5.272-0.103c-1.559,1.033-2.375,3.073-1.958,4.896
				c0.416,1.823,2.036,3.307,3.888,3.56c1.852,0.255,3.813-0.737,4.704-2.38C452.045,337.77,452.002,335.11,449.761,333.495z"/>
			<path style="fill:#A8D9FF;" d="M322.811,116.309c-1.98,0.178-3.999-1.131-4.645-3.011c-0.646-1.881,0.143-4.155,1.815-5.231
				c1.671-1.077,4.067-0.853,5.511,0.513c1.445,1.366,1.801,3.746,0.819,5.476C325.642,115.234,324.496,116.158,322.811,116.309z"/>
			<path style="fill:none;stroke:#2E2854;stroke-linecap:round;stroke-linejoin:round;stroke-miterlimit:10;" d="M275.938,192.668"
				/>
		</g>
	</g>
	<g>
		<g>
			<g>
				<path style="fill:#FF9040;" d="M125.873,310.556c-9.176-14.542-18.09-29.323-24.971-45.082
					c-6.882-15.757-11.71-32.588-12.369-49.77c-0.324-8.449,0.501-17.354,5.162-24.408c4.663-7.054,14.108-11.501,21.884-8.18
					c6.825,2.915,10.277,10.492,12.388,17.607c4.612,15.551,5.768,31.876,8.231,47.909c2.462,16.032,6.453,32.312,15.866,45.523
					L125.873,310.556z"/>
				<path style="opacity:0.15;fill:#543728;" d="M94.414,248.203c1.838,5.872,4.028,11.642,6.488,17.272
					c6.881,15.758,15.795,30.54,24.971,45.082l26.191-16.402c-9.413-13.21-13.403-29.491-15.866-45.523
					c-1.831-11.925-2.943-24.011-5.288-35.821c-1.874,10.949-4.543,33.645,0.766,54.257c-5.429,0.523-10.106,2.107-14.14,4.374
					C108.787,257.861,100.206,251.322,94.414,248.203z"/>
				<path style="fill:none;stroke:#2E2854;stroke-linecap:round;stroke-linejoin:round;stroke-miterlimit:10;" d="M110.496,207.502
					c0.679,35.313,13.345,70.288,35.434,97.847"/>
			</g>
			<g>
				<path style="fill:#FFBF40;" d="M119.933,330.64c-10.068-12.003-23.547-20.529-36.282-29.651
					c-12.736-9.124-25.306-19.485-32.212-33.546c-2.996-6.1-4.783-13.493-1.78-19.589c3.112-6.319,10.758-9.448,17.785-8.962
					c7.026,0.485,13.503,3.946,19.304,7.941c20.874,14.375,35.473,35.958,49.57,57.022L119.933,330.64z"/>
				<path style="opacity:0.15;fill:#543728;" d="M115.281,325.57l9.392-2.677l11.646-19.039
					c-6.925-10.347-13.976-20.815-21.827-30.497c-14.133,9.937-19.164,28.461-20.532,34.91
					C101.472,313.591,108.853,319.09,115.281,325.57z"/>
				<path style="fill:none;stroke:#2E2854;stroke-linecap:round;stroke-linejoin:round;stroke-miterlimit:10;" d="M70.741,263.552
					c22.096,15.231,42.009,33.623,58.945,54.441"/>
			</g>
			<g>
				<path style="fill:#FFBF40;" d="M151.162,297.779c-19.271-31.843-24.181-72.019-13.147-107.565
					c3.09-9.955,7.686-19.964,15.962-26.3c3.719-2.848,8.187-4.872,12.865-5.099c4.678-0.226,9.554,1.508,12.568,5.093
					c3.272,3.888,3.992,9.292,4.087,14.374c0.25,13.364-2.874,26.544-6.289,39.467c-3.414,12.924-7.157,25.866-8.192,39.192
					c-1.035,13.326,0.852,27.286,7.967,38.602L151.162,297.779z"/>
				<path style="opacity:0.15;fill:#543728;" d="M178.245,213.763c1.769-6.909,3.365-13.888,4.324-20.928l-41.926-10.027
					c-0.992,2.433-1.857,4.92-2.628,7.404c-1.093,3.522-2.024,7.091-2.806,10.692C143.707,207.387,160.836,217.916,178.245,213.763z
					"/>
				<path style="opacity:0.15;fill:#543728;" d="M173.171,233.207c-15.027,18.842-11.189,40.123-11.189,40.123
					c-9.282-4.161-17.336-6.096-24.32-6.405c3.158,10.808,7.666,21.214,13.5,30.854l25.822-2.238
					c-7.115-11.315-9.001-25.276-7.967-38.602C169.64,248.915,171.247,241.032,173.171,233.207z"/>
				<path style="fill:none;stroke:#2E2854;stroke-linecap:round;stroke-linejoin:round;stroke-miterlimit:10;" d="M163.121,187.388
					c-12.621,37.129-11.144,78.863,4.07,115.008"/>
			</g>
		</g>
		<g>
			<g>
				<path style="fill:#FF9040;" d="M363.748,273.662c3.735-25.987,21.338-49.564,45.191-60.529
					c5.822-2.676,12.21-4.666,18.571-3.889c6.359,0.778,12.631,4.877,14.393,11.038c1.778,6.217-1.276,12.814-5.201,17.954
					c-7.787,10.193-18.94,17.147-29.139,24.926c-10.199,7.78-20.075,17.276-23.354,29.678L363.748,273.662z"/>
				<path style="opacity:0.15;fill:#543728;" d="M407.563,263.161c5.393-4.113,11.049-7.999,16.336-12.252
					c-13.275,3.444-23.982,10.893-30.928,16.923c-1.459-1.94-3.17-3.825-5.18-5.623c-2.748-2.458-5.581-4.315-8.442-5.691
					c2.525-9.016,3.708-18.182,4.263-24.611c-10.475,11.619-17.636,26.257-19.863,41.754l20.461,19.177
					C387.489,280.437,397.364,270.941,407.563,263.161z"/>
				<path style="fill:none;stroke:#2E2854;stroke-linecap:round;stroke-linejoin:round;stroke-miterlimit:10;" d="M371.14,282.748
					c6.729-22.744,24.075-42.102,45.948-51.274"/>
			</g>
			<g>
				<path style="fill:#FFBF40;" d="M384.227,314.341c24.425-7.683,49.17-16.848,68.247-33.927c3.451-3.09,6.761-6.52,8.62-10.764
					c1.857-4.244,2.036-9.469-0.564-13.303c-3.304-4.876-9.91-6.184-15.799-6.116c-13.361,0.153-26.34,5.238-37.426,12.695
					c-11.086,7.458-20.44,17.212-29.037,27.441L384.227,314.341z"/>
				<path style="opacity:0.15;fill:#543728;" d="M395.696,272.029c-6.274,5.619-12.004,11.882-17.429,18.338l5.959,23.974
					c4.276-1.345,8.56-2.74,12.823-4.21C399.841,302.065,403.508,286.131,395.696,272.029z"/>
				<path style="fill:none;stroke:#2E2854;stroke-linecap:round;stroke-linejoin:round;stroke-miterlimit:10;" d="M379.936,302.768
					c19.03-11.389,38.06-22.779,57.09-34.168"/>
			</g>
			<g>
				<path style="fill:#FFBF40;" d="M335.698,275.65c2.289-21.287,4.58-42.574,6.87-63.86c0.883-8.213,1.897-16.797,6.537-23.633
					c4.641-6.835,14.143-11.133,21.42-7.221c5.889,3.166,8.305,10.301,9.47,16.884c4.877,27.558-3.163,55.73-13.334,81.801
					L335.698,275.65z"/>
				<path style="opacity:0.15;fill:#543728;" d="M375.183,254.849c-16.102-5.2-32.181,3.309-37.993,6.94
					c-0.497,4.62-0.994,9.24-1.491,13.861l30.962,3.971C369.813,271.539,372.76,263.254,375.183,254.849z"/>
				<path style="fill:none;stroke:#2E2854;stroke-linecap:round;stroke-linejoin:round;stroke-miterlimit:10;" d="M360.893,208.344
					c1.426,24.829-1.072,49.88-7.374,73.94"/>
			</g>
		</g>
		<g>
			<g>
				<g>
					<path style="fill:none;stroke:#2E2854;stroke-linecap:round;stroke-linejoin:round;stroke-miterlimit:10;" d="M67.333,411.233
						c3.564,6.01,8.344,11.297,13.968,15.448"/>
					<path style="fill:none;stroke:#2E2854;stroke-linecap:round;stroke-linejoin:round;stroke-miterlimit:10;" d="M90.631,330.996
						c0.598,6.39,4.624,12.357,10.325,15.304"/>
					<path style="fill:none;stroke:#2E2854;stroke-linecap:round;stroke-linejoin:round;stroke-miterlimit:10;" d="M161.981,251.134
						c3.685,2.366,7.369,4.732,11.053,7.098"/>
					<path style="fill:none;stroke:#2E2854;stroke-linecap:round;stroke-linejoin:round;stroke-miterlimit:10;" d="M324.481,267.534
						c3.011-4.795,6.022-9.589,9.033-14.385"/>
					<path style="fill:none;stroke:#2E2854;stroke-linecap:round;stroke-linejoin:round;stroke-miterlimit:10;" d="M381.458,359.761
						c2.915-3.852,5.831-7.704,8.746-11.558"/>
					<path style="fill:none;stroke:#2E2854;stroke-linecap:round;stroke-linejoin:round;stroke-miterlimit:10;" d="M408.947,402.244
						c5.681-1.696,10.962-4.712,15.307-8.745"/>
				</g>
				<path style="fill:#76C9BF;" d="M83.591,457.936h344.645c3.483-5.355,5.85-11.439,6.82-17.754
					c1.194-7.779,0.049-16.427-5.335-22.165c-5.139-5.476-13.036-7.269-20.493-8.145c3.787-8.649,5.854-17.907,4.719-26.974
					c-1.136-9.067-5.73-17.897-13.276-23.049c-11.367-7.758-26.471-5.965-40.071-3.86c12.254-14.993,24.735-27.482,30.935-43.384
					c6.201-15.904,4.377-36.269-8.87-47.032c-7.555-6.14-17.931-8.335-27.527-6.694c-9.596,1.641-18.378,6.893-25.104,13.931
					c-1.673-9.938-9.781-17.157-18.989-18.415c-9.209-1.256-18.955,3.527-23.594,11.58c-1.753-26.697-17.182-47.614-38.188-55.841
					c-21.006-8.227-46.537-3.352-63.035,12.036c-16.497,15.387-23.135,40.517-16.387,62.046
					c-10.011-10.828-26.434-16.102-40.965-12.418c-14.532,3.684-26.457,16.147-29.497,30.827
					c-3.041,14.679,2.953,30.854,14.826,40.008c-12.773-4.279-25.962,0.608-32.251,9.89c-6.288,9.282-6.61,21.603-3.492,32.371
					c3.119,10.77,9.289,20.356,15.38,29.77c-7.88-0.222-14.214,3.942-17.423,9.74c-3.21,5.799-3.487,12.956-1.53,19.288
					C76.546,449.057,79.708,453.852,83.591,457.936z"/>
				<path style="opacity:0.06;fill:#285447;" d="M361.022,414.165c0,0,5.934-46.681-21.495-59.209
					c-17.895-8.173-31.772-6.096-39.26-3.664l-5.49-93.01c-2.985,1.974-5.538,4.586-7.327,7.692
					c-1.753-26.697-17.182-47.614-38.188-55.841c-13.796-5.403-29.543-5.154-43.402,0.012L194.1,336.94
					c-40.947-2.287-34.806,37.862-34.806,37.862c-11.97-3.066-29.865,6.725-31.349,26.407c-1.484,19.681,9.297,30.758,9.297,30.758
					c-18.528,0.856-20.387,18.495-20.34,25.969h276.86C410.009,411.403,361.022,414.165,361.022,414.165z"/>
			</g>
			<g>
				<g>
					<path style="fill:none;stroke:#2E2854;stroke-linecap:round;stroke-linejoin:round;stroke-miterlimit:10;" d="M154.135,360.672
						c2.402,7.191,5.892,14.019,10.317,20.179"/>
					<path style="fill:none;stroke:#2E2854;stroke-linecap:round;stroke-linejoin:round;stroke-miterlimit:10;" d="M311.768,344.142
						c-0.127,4.595-1.39,9.154-3.646,13.16"/>
					<path style="fill:none;stroke:#2E2854;stroke-linecap:round;stroke-linejoin:round;stroke-miterlimit:10;" d="M359.516,423.283
						c3.058-6.542,6.117-13.083,9.174-19.624"/>
					<path style="fill:none;stroke:#2E2854;stroke-linecap:round;stroke-linejoin:round;stroke-miterlimit:10;" d="M126.921,428.159
						c1.2,4.832,4.732,9.028,9.287,11.036"/>
				</g>
				<g>
					<path style="fill:#49AD9F;" d="M388.213,457.936c0.848-5.655,0.787-11.441-0.615-16.969
						c-1.863-7.344-6.241-14.195-12.667-18.211c-6.426-4.016-14.944-4.876-21.692-1.427c8.126-18.19,7.36-35.931-1.268-48.832
						c-8.628-12.9-24.733-20.381-40.157-18.654c-15.423,1.726-29.474,12.584-35.036,27.073c-4.783-12.224-8.408-20.232-14.12-26.614
						c-5.712-6.382-13.704-11.017-22.259-11.444c-8.554-0.425-17.498,3.874-21.438,11.479
						c-13.894-14.426-29.295-16.374-40.831-10.146c-11.535,6.228-18.357,20.173-16.192,33.103
						c-12.03-4.281-24.84,6.551-28.222,19.757c-3.383,13.208,1.6,27.664,10.793,37.733c-8.734-2.72-16.065,1.582-19.424,7.695
						c-2.565,4.668-3.22,10.089-2.891,15.457H388.213z"/>
					<path style="opacity:0.06;fill:#285447;" d="M242.585,343.07c-0.724-0.097-1.452-0.175-2.185-0.212
						c-8.554-0.425-17.498,3.874-21.438,11.479c-6.867-7.13-14.103-11.208-21.058-12.761l-8.97,106.525l-12.266,9.835h45.197
						l-0.756-14.689h6.593L242.585,343.07z"/>
					<path style="opacity:0.06;fill:#285447;" d="M295.828,359.126c-8.556,4.864-15.518,12.589-19.05,21.79
						c-4.783-12.224-8.408-20.232-14.12-26.614c-3.72-4.157-8.411-7.563-13.591-9.557l5.096,100.661l9.277,0.772l0.662,11.758
						h46.811l-17.604-11.758C293.308,446.178,296.508,400.15,295.828,359.126z"/>
				</g>
			</g>
		</g>
	</g>
	<g>
		<g>
			<path style="fill:#FF9040;" d="M247.689,129.454c4.2-6.36,11.579-10.12,19.1-11.349c7.522-1.229,15.231-0.189,22.69,1.376
				c9.296,1.952,18.976,5.07,25.075,12.352c5.682,6.785,7.274,15.995,8.661,24.735c3.192,20.121,6.395,40.463,4.839,60.776
				c-0.506,6.612-1.672,13.55-5.891,18.666c-4.998,6.06-13.338,8.337-21.191,8.519c-11.685,0.269-24.187-4.028-30.617-13.789
				L247.689,129.454z"/>
			<path style="fill:none;stroke:#2E2854;stroke-linecap:round;stroke-linejoin:round;stroke-miterlimit:10;" d="M288.405,135.502
				c4.533,2.159,9.82,2.688,14.691,1.472c2.56-0.64,4.989-1.739,7.558-2.342c2.114-0.497,4.419-0.624,6.434,0.097"/>
			<g>
				<path style="fill:#C96D2A;" d="M312.389,146.896c-1.832,0.12-3.708,0.402-5.487,0.854c-1.779,0.452-3.497,1.449-4.419,3.037
					c-0.883,1.52-0.936,3.368-0.899,5.126c0.071,3.303,0.385,6.6,0.938,9.856c0.478,2.811,1.222,5.754,3.255,7.751
					c1.561,1.534,3.728,2.327,5.898,2.608c2.17,0.281,4.37,0.09,6.549-0.1c2.284-0.2,4.766-0.487,6.401-2.093
					c1.843-1.811,2.006-4.685,1.969-7.267c-0.054-3.822-0.288-7.642-0.701-11.442c-0.203-1.874-0.483-3.832-1.593-5.356
					c-1.127-1.546-2.982-2.432-4.862-2.78C317.557,146.742,315.665,146.682,312.389,146.896z"/>
				<path style="fill:none;stroke:#2E2854;stroke-linecap:round;stroke-linejoin:round;stroke-miterlimit:10;" d="M300.803,151.72
					c1.127,2.826,4.118,4.367,6.889,5.623c1.929,0.875,3.945,1.746,6.061,1.709c2.571-0.045,4.966-1.454,6.746-3.31
					c1.674-1.746,2.885-3.87,4.052-5.993"/>
				<path style="fill:none;stroke:#2E2854;stroke-linecap:round;stroke-linejoin:round;stroke-miterlimit:10;" d="M315.212,153.721
					c-0.749-0.338-1.73-0.059-2.174,0.632c-0.446,0.691-0.285,1.711,0.364,2.218c0.648,0.506,1.693,0.406,2.22-0.226
					C316.149,155.714,316.356,154.235,315.212,153.721z"/>
			</g>
			<g>
				<path style="fill:#C96D2A;" d="M296.136,200.882c1.187,5.907,0.49,12.034,1.216,18.015c0.725,5.981,3.398,12.341,8.893,14.813
					c3.152,1.419,6.747,1.339,10.201,1.233c4.25-0.13,8.996-0.477,11.849-3.629c2.255-2.492,2.695-6.095,2.891-9.451
					c0.492-8.436,0.114-16.923-1.127-25.281c-0.343-2.306-0.844-4.78-2.565-6.355c-1.782-1.633-4.413-1.872-6.83-1.838
					c-5.793,0.082-11.509,1.245-17.185,2.403c-2.21,0.451-4.524,0.952-6.234,2.422C295.536,194.685,295.406,197.251,296.136,200.882
					z"/>
				<path style="fill:none;stroke:#2E2854;stroke-linecap:round;stroke-linejoin:round;stroke-miterlimit:10;" d="M318.471,200.966
					c-0.749-0.338-1.73-0.059-2.174,0.632c-0.445,0.69-0.284,1.711,0.365,2.218c0.648,0.506,1.692,0.406,2.219-0.225
					C319.407,202.959,319.615,201.481,318.471,200.966z"/>
				<path style="fill:none;stroke:#2E2854;stroke-linecap:round;stroke-linejoin:round;stroke-miterlimit:10;" d="M295.378,193.254
					c4.323,4.059,9.188,7.54,14.426,10.321c2.39,1.27,4.97,2.418,7.675,2.335c3.617-0.113,6.865-2.468,8.964-5.414
					c1.476-2.072,2.479-4.419,3.331-6.827"/>
			</g>
		</g>
		<g>
			<g>
				<path style="fill:#905031;" d="M193.232,438.634c-0.284,3.157-0.569,6.313-0.855,9.466l12.414,5.526l13.006-4.987l0,0
					c0.148-3.818,0.297-7.635,0.445-11.453L193.232,438.634z"/>
				<path style="fill:#2E2854;" d="M217.437,457.936c0.12-3.099,0.241-6.198,0.361-9.297l-25.42-0.538
					c-4.841,3.558-8.473,6.399-13.4,9.835H217.437z"/>
			</g>
			<g>
				<path style="fill:#905031;" d="M291.271,448.101c0.064-2.04,0.126-4.067,0.184-6.082l-25.98-2.201l0.101,8.398l0,0l15.468,4.322
					L291.271,448.101z"/>
				<polygon style="fill:#2E2854;" points="265.693,457.936 306.106,457.936 291.271,448.101 265.576,448.216 				"/>
			</g>
			<g>
				<path style="fill:#5767BF;" d="M287.488,235.187c3.964,69.955,6.214,129.09,3.966,206.832
					c-11.599,1.837-23.085,1.59-34.622-0.597c-1.767-55.445-4.873-110.452-9.979-165.273
					c-5.224,53.81-12.328,109.329-21.386,164.528c-11.281,0.503-21.832-0.398-32.235-2.043
					c6.202-68.845,12.193-138.405,18.126-207.349L287.488,235.187z"/>
				<g>
					<path style="fill:none;stroke:#2E2854;stroke-linecap:round;stroke-linejoin:round;stroke-miterlimit:10;" d="M212.006,257.038
						c4.72-2.895,7.593-8.557,7.142-14.075"/>
					<path style="fill:none;stroke:#2E2854;stroke-linecap:round;stroke-linejoin:round;stroke-miterlimit:10;" d="M269.541,245.431
						c0.485,4.337,1.718,8.735,4.504,12.094c2.785,3.359,7.367,5.465,11.602,4.41"/>
					<path style="fill:none;stroke:#2E2854;stroke-linecap:round;stroke-linejoin:round;stroke-miterlimit:10;" d="M256.832,441.422
						c-1.767-55.445-4.873-110.452-9.979-165.273c-1.798,0.616-4.183-0.957-4.964-2.716c-0.466-1.049-0.787-2.148-0.983-3.272"/>
					<path style="fill:none;stroke:#2E2854;stroke-linecap:round;stroke-linejoin:round;stroke-miterlimit:10;" d="M213.593,236.736
						c0,0,29.275,7.912,71.011,3.264"/>
				</g>
			</g>
		</g>
		<g>
			<g>
				<path style="fill:#905031;" d="M242.805,113.429c-0.576,5.431-0.754,10.906-0.26,16.646c4.138,0.417,8.339,0.19,12.961-0.803
					c-0.509-5.326-1.02-10.653-1.531-15.979L242.805,113.429z"/>
				<path style="fill:#824629;" d="M254.45,118.238c-0.158-1.648-0.316-3.297-0.474-4.945l-11.171,0.136
					c-0.182,1.712-0.318,3.429-0.412,5.156C244.701,119.215,249.254,119.97,254.45,118.238z"/>
			</g>
			<path style="fill:#C464B4;" d="M274.879,91.942c1.002-7.177,1.753-14.526,0.325-21.629s-5.349-14.026-11.716-17.486
				c-3.847-2.091-8.296-2.79-12.667-3.035c-7.677-0.428-15.535,0.487-22.572,3.586c-2.428,1.07-4.794,2.432-6.519,4.447
				c-3.235,3.777-3.706,9.205-3.167,14.148c0.54,4.944,1.931,9.814,1.697,14.988c8.319,3.992,16.75,8.02,25.802,9.808
				C255.113,98.555,265.006,97.886,274.879,91.942z"/>
			<g>
				<path style="fill:#905031;" d="M223.441,84.473c-3.148-1.134-6.864,0.623-8.571,3.501c-1.708,2.878-1.649,6.553-0.519,9.704
					c0.918,2.561,2.59,4.955,5.01,6.198c2.42,1.242,5.641,1.096,7.612-0.78L223.441,84.473z"/>
				<g>
					<path style="fill:#905031;" d="M223.437,72.986c-0.614,5.803-1.228,11.644-0.784,17.463c0.444,5.819,2.011,11.674,5.404,16.423
						c4.324,6.053,11.582,9.903,19.018,10.091c7.436,0.188,14.878-3.292,19.503-9.119c4.624-5.826,6.323-13.864,4.452-21.063
						c-0.829-3.191-2.425-6.33-5.136-8.206c-2.954-2.046-6.814-2.31-10.371-1.805c-3.557,0.505-6.982,1.698-10.521,2.323
						c-3.802,0.671-7.766,0.668-11.474-0.409C229.821,77.607,226.383,75.404,223.437,72.986z"/>
					<g>
						<path style="fill:#A15937;" d="M264.363,102.597c-1.666-1.008-3.962-0.84-5.465,0.398c-1.94,1.598-2.095,4.072-1.212,5.809
							c0.883,1.736,2.92,2.807,4.851,2.55c0.275-0.037,0.542-0.106,0.804-0.193c1.126-0.951,2.166-2.001,3.095-3.148
							c0.04-0.13,0.088-0.257,0.116-0.39C266.949,105.716,266.031,103.605,264.363,102.597z"/>
						<path style="fill:#A15937;" d="M228.057,106.872c1.148,1.607,2.508,3.053,4.018,4.322c1.261-0.361,2.387-1.218,2.984-2.39
							c0.884-1.737,0.729-4.211-1.212-5.809c-1.504-1.238-3.799-1.406-5.466-0.398c-0.769,0.465-1.368,1.168-1.763,1.973
							C227.06,105.359,227.529,106.133,228.057,106.872z"/>
					</g>
					<g>
						<path style="fill:none;stroke:#2E2854;stroke-linecap:round;stroke-linejoin:round;stroke-miterlimit:10;" d="M226.618,87.273
							c1.049-0.959,2.453-1.519,3.874-1.544c1.42-0.024,2.844,0.488,3.924,1.41"/>
						<path style="fill:none;stroke:#2E2854;stroke-linecap:round;stroke-linejoin:round;stroke-miterlimit:10;" d="M258.479,87.273
							c-1.048-0.959-2.453-1.519-3.874-1.544c-1.421-0.024-2.844,0.488-3.925,1.41"/>
						<path style="fill:none;stroke:#2E2854;stroke-linecap:round;stroke-linejoin:round;stroke-miterlimit:10;" d="M242.02,87.952
							c-0.922,1.583-1.845,3.167-2.539,4.983c0.867,0.05,1.734,0.099,2.602,0.149"/>
						<path style="fill:none;stroke:#2E2854;stroke-linecap:round;stroke-linejoin:round;stroke-miterlimit:10;" d="M236.141,97.885
							c3.643,1.218,7.747,0.989,11.231-0.625"/>
					</g>
				</g>
				<g>
					<path style="opacity:0.45;fill:#C6E6FF;" d="M230.677,95.089c-2.046,0.215-4.156-0.389-5.799-1.568
						c-1.642-1.177-2.817-2.904-3.374-4.784c-0.95-3.208,0.042-6.959,2.742-9.091c2.613-2.062,6.6-2.349,9.55-0.749
						c2.95,1.6,4.707,4.95,4.352,8.156C237.794,90.259,235.776,94.553,230.677,95.089z"/>
					<path style="opacity:0.45;fill:#C6E6FF;" d="M254.507,95.089c2.046,0.215,4.157-0.389,5.799-1.568
						c1.642-1.177,2.817-2.904,3.374-4.784c0.95-3.208-0.041-6.959-2.743-9.091c-2.612-2.062-6.599-2.349-9.549-0.749
						c-2.95,1.6-4.707,4.95-4.352,8.156C247.39,90.259,249.408,94.553,254.507,95.089z"/>
					<path style="fill:none;stroke:#FFBF40;stroke-width:2;stroke-linecap:round;stroke-linejoin:round;stroke-miterlimit:10;" d="
						M230.677,95.089c-2.046,0.215-4.156-0.389-5.799-1.568c-1.642-1.177-2.817-2.904-3.374-4.784
						c-0.95-3.208,0.042-6.959,2.742-9.091c2.613-2.062,6.6-2.349,9.55-0.749c2.95,1.6,4.707,4.95,4.352,8.156
						C237.794,90.259,235.776,94.553,230.677,95.089z"/>
					<path style="fill:none;stroke:#FFBF40;stroke-width:2;stroke-linecap:round;stroke-linejoin:round;stroke-miterlimit:10;" d="
						M238.168,85.612c1.304-1.025,2.988-1.567,4.645-1.468c1.541,0.093,3.039,0.739,4.184,1.774"/>
					<path style="fill:none;stroke:#FFBF40;stroke-width:2;stroke-linecap:round;stroke-linejoin:round;stroke-miterlimit:10;" d="
						M264.029,86.167c3.447-0.189,6.907-0.138,10.348,0.15"/>
					<path style="fill:none;stroke:#FFBF40;stroke-width:2;stroke-linecap:round;stroke-linejoin:round;stroke-miterlimit:10;" d="
						M254.507,95.089c2.046,0.215,4.157-0.389,5.799-1.568c1.642-1.177,2.817-2.904,3.374-4.784c0.95-3.208-0.041-6.959-2.743-9.091
						c-2.612-2.062-6.599-2.349-9.549-0.749c-2.95,1.6-4.707,4.95-4.352,8.156C247.39,90.259,249.408,94.553,254.507,95.089z"/>
				</g>
				<g>
					<path style="fill:#905031;" d="M269.799,87.599c1.907-1.662,4.21-2.938,6.709-3.328c2.499-0.389,5.201,0.181,7.129,1.819
						c2.719,2.31,3.459,6.279,2.98,9.815c-0.395,2.903-1.524,5.752-3.496,7.917c-1.973,2.165-4.834,3.585-7.762,3.516
						c-2.929-0.07-5.842-1.754-7.087-4.405L269.799,87.599z"/>
					<g>
						<path style="fill:none;stroke:#2E2854;stroke-linecap:round;stroke-linejoin:round;stroke-miterlimit:10;" d="M275.48,91.232
							c2.615-0.585,5.513,0.338,7.306,2.327"/>
						<path style="fill:none;stroke:#2E2854;stroke-linecap:round;stroke-linejoin:round;stroke-miterlimit:10;" d="M276.202,97.259
							c1.719-1.489,2.931-3.54,3.412-5.764"/>
					</g>
				</g>
			</g>
		</g>
		<g>
			<g>
				<g>
					<g>
						<path style="fill:#905031;" d="M124.657,148.792c3.653,11.328,13.889,19.182,24.214,25.106
							c7.526,4.318,16.028,8.122,24.6,6.781c4.296-0.672,8.154-2.566,11.592-5.182l21.165,20.267
							c-7.216,6.586-16.09,11.426-25.641,13.482c-9.551,2.056-19.763,1.261-28.71-2.663c-8.714-3.822-15.917-10.378-22.565-17.187
							c-10.798-11.061-20.795-23.46-25.683-38.125l16.638-7.898L124.657,148.792z"/>
						<path style="fill:#824629;" d="M200.143,192.668c0,0-11.275,12.815-39.24,9.255c-19.437-2.475-38.253-21.019-47.927-32.104
							c4.732,7.03,10.41,13.508,16.337,19.578c6.647,6.808,13.851,13.365,22.565,17.187c8.947,3.924,19.16,4.719,28.71,2.663
							c9.196-1.979,17.76-6.545,24.826-12.76L200.143,192.668z"/>
					</g>
					<g>
						<path style="fill:#4C2E6D;" d="M112.593,113.096c4.838,10.343,8.423,21.271,10.655,32.47c0.414,2.079-0.639,4.189-2.574,5.056
							c-5.741,2.569-11.827,4.374-18.045,5.55c-2.103,0.4-4.191-0.75-5.024-2.723c-4.409-10.443-7.572-21.371-9.634-32.411
							c-0.383-2.054,0.659-4.126,2.565-4.984c5.185-2.332,10.742-4.088,16.933-5.488
							C109.555,110.094,111.687,111.158,112.593,113.096z"/>
						<path style="fill:#693F96;" d="M111.56,151.558c-0.856,0.231-1.846-0.294-2.135-1.132c-0.289-0.839,0.169-1.861,0.985-2.207
							c0.818-0.344,1.869,0.042,2.268,0.834C113.077,149.845,112.875,151.203,111.56,151.558z"/>
						<g>
							<path style="fill:#FFBF40;" d="M110.497,115.592c3.467,7.859,6.256,16.01,8.328,24.335c0.337,1.352-0.366,2.751-1.635,3.325
								c-5.102,2.31-10.181,3.737-15.318,4.595c-1.357,0.227-2.702-0.515-3.197-1.799c-3.174-8.228-5.636-16.355-7.383-24.493
								c-0.283-1.313,0.395-2.648,1.613-3.215c4.372-2.033,9.091-3.495,14.441-4.414
								C108.653,113.701,109.962,114.38,110.497,115.592z"/>
							<path style="fill:#FFDB94;" d="M118.826,139.927c-1.746-7.015-4.007-13.903-6.748-20.6c-1.146-0.419-2.503-0.258-3.487,0.469
								c-1.168,0.863-1.737,2.462-1.377,3.87c-1.092-0.658-2.41-0.475-3.308,0.263c-0.897,0.737-1.332,1.996-1.082,3.131
								c-0.9-0.488-2.016-0.321-2.786,0.304c-0.77,0.625-1.162,1.684-0.984,2.66c-0.944-1.02-2.248-1.51-3.401-1.225
								c-0.963,0.237-1.76,1.005-2.087,1.937c1.425,5.083,3.128,10.179,5.109,15.313c0.495,1.284,1.84,2.026,3.197,1.799
								c5.138-0.858,10.216-2.286,15.318-4.595C118.46,142.677,119.162,141.279,118.826,139.927z"/>
							<path style="fill:none;stroke:#2E2854;stroke-linecap:round;stroke-linejoin:round;stroke-miterlimit:10;" d="M97.13,120.063
								c-1.123-0.068-2.208,0.872-2.313,1.992c-0.104,1.12,0.777,2.241,1.889,2.414c1.112,0.173,2.286-0.615,2.559-1.707
								C99.538,121.67,98.918,120.173,97.13,120.063z"/>
							<path style="fill:#C464B4;" d="M101.873,147.847c5.138-0.858,10.216-2.286,15.318-4.595c1.269-0.574,1.972-1.973,1.635-3.325
								c-1.488-5.977-3.371-11.853-5.584-17.606c-4.916,5.375-10.507,10.131-16.611,14.106c-0.369,0.24-0.741,0.475-1.114,0.709
								c0.963,2.961,2.009,5.93,3.159,8.912C99.171,147.333,100.516,148.075,101.873,147.847z"/>
							<path style="fill:none;stroke:#2E2854;stroke-linecap:round;stroke-linejoin:round;stroke-miterlimit:10;" d="
								M111.562,124.106c-4.497,4.647-9.512,8.792-14.932,12.321"/>
							<path style="fill:none;stroke:#2E2854;stroke-linecap:round;stroke-linejoin:round;stroke-miterlimit:10;" d="M97.548,139.91
								c1.758-1.036,3.374-2.319,4.975-3.594c2.086-1.663,4.191-3.345,6.599-4.492c1.872-0.892,3.966-1.44,6.02-1.329"/>
							<path style="fill:none;stroke:#2E2854;stroke-linecap:round;stroke-linejoin:round;stroke-miterlimit:10;" d="
								M99.037,143.629c1.045-0.469,2.017-1.15,2.936-1.846c1.496-1.134,2.985-2.366,4.781-2.916c1.952-0.6,4.05-0.329,6.091-0.421
								c1.513-0.068,3.137-0.422,4.311-1.312"/>
						</g>
					</g>
					<g>
						<path style="fill:#905031;" d="M113.863,156.599c0.098-3.066,2.247-5.964,5.262-6.602c-0.772-2.808-1.038-5.754-0.783-8.654
							c0.063-0.718,0.168-1.46,0.561-2.063c0.392-0.605,1.151-1.027,1.839-0.818c0.692,0.212,1.067,0.942,1.35,1.608
							c1.15,2.706,2.05,5.517,2.566,8.722l0.37,5.98"/>
						<path style="fill:none;stroke:#2E2854;stroke-linecap:round;stroke-linejoin:round;stroke-miterlimit:10;" d="
							M113.863,156.599c0.098-3.066,2.247-5.964,5.262-6.602c-0.772-2.808-1.038-5.754-0.783-8.654
							c0.063-0.718,0.168-1.46,0.561-2.063c0.392-0.605,1.151-1.027,1.839-0.818c0.692,0.212,1.067,0.942,1.35,1.608
							c1.15,2.706,2.05,5.517,2.566,8.722"/>
					</g>
				</g>
				<g>
					<path style="fill:#FFFFFF;" d="M214.902,207.57c-12.57-7.77-22.992-18.977-29.838-32.072
						c4.587-3.492,8.426-8.271,11.561-13.155c5.485-8.545,9.811-18.057,17.22-24.999c1.969-1.845,4.14-3.46,6.463-4.826
						c0,0,1.835,18.042,0,41.251C218.472,196.978,214.902,207.57,214.902,207.57z"/>
					<path style="fill:none;stroke:#2E2854;stroke-linecap:round;stroke-linejoin:round;stroke-miterlimit:10;" d="M190.962,172.541
						c5.79,11.333,14.489,21.173,25.047,28.282"/>
					<path style="opacity:0.15;fill:#2E2854;" d="M206.062,201.252c2.804,2.297,5.757,4.412,8.84,6.319
						c0,0,3.571-10.592,5.406-33.801c0.268-3.389,0.456-6.664,0.585-9.793l-3.107-7.234
						C216.31,171.118,208.555,194.123,206.062,201.252z"/>
				</g>
			</g>
			<g>
				<path style="fill:#FFFFFF;" d="M279.339,127.831c-2.544-0.718-5.158-1.203-7.784-1.466l-20.543,9.554l-21.855-7.175
					c-3.106,0.884-6.086,2.149-8.849,3.774l-2.522,24.224c-2.14,24.725-4.28,49.594-6.427,74.543
					c25.079,4.538,50.713,5.79,76.13,3.901L279.339,127.831z"/>
				<path style="opacity:0.15;fill:#2E2854;" d="M287.309,232.824l-1.985-26.145c-6.349-1.62-16.817-5.434-25.181-14.054
					c-12.923-13.317-22.022-21.757-22.022-21.757s-3.611,13.92,6.749,29.955c0,0,1.064,25.505,17.185,31.649
					C272.242,236.354,281.713,234.624,287.309,232.824z"/>
				<path style="opacity:0.15;fill:#2E2854;" d="M279.88,134.967l-0.319-4.199c-5.927,1.815-24.565,9.189-27.331,30.753l4.938,2.094
					C257.169,163.615,262.351,142.237,279.88,134.967z"/>
				<path style="opacity:0.15;fill:#2E2854;" d="M282.372,167.792l-11.798-13.391c0,0,0.442,35.264,1.203,55.635
					c0.448,11.995,8.195,11.507,14.491,9.079L282.372,167.792z"/>
				<path style="fill:none;stroke:#2E2854;stroke-linecap:round;stroke-linejoin:round;stroke-miterlimit:10;" d="M226.253,131.373
					c5.646,8.397,15.966,13.529,26.085,12.739c9.759-0.762,18.848-6.995,23.316-15.666"/>
				<path style="fill:#905031;" d="M271.804,126.396c-0.083-0.009-0.166-0.022-0.249-0.03c-7.399-0.74-14.904,0.236-22.07,2.224
					c-6.821-1.849-13.853-1.687-20.327,0.154c4.887,7.117,13.652,11.452,22.283,10.877
					C259.878,139.058,267.81,133.824,271.804,126.396z"/>
				<path style="fill:none;stroke:#2E2854;stroke-linecap:round;stroke-linejoin:round;stroke-miterlimit:10;" d="M217.786,156.742
					c-2.14,24.725-4.28,49.594-6.427,74.543c25.079,4.538,50.713,5.79,76.13,3.901"/>
			</g>
			<g>
				<g>
					<g>
						<path style="fill:#905031;" d="M306.627,185.597c1.444,11.409,0.191,23.148-3.629,33.994
							c-1.821,5.167-4.565,10.499-9.498,12.881l-16.5-32.565c-0.065-2.429-0.173-4.857-0.325-7.282c0,0,4.04-4.614,12.875-8.174
							C298.385,180.89,306.627,185.597,306.627,185.597z"/>
						<path style="fill:#824629;" d="M303.658,217.624c-3.559,2.084-8.738,3.97-15.717,3.878l5.558,10.969
							c4.933-2.382,7.678-7.713,9.498-12.881C303.228,218.939,303.447,218.283,303.658,217.624z"/>
					</g>
					<g>
						<path style="fill:#FFFFFF;" d="M279.339,127.831c4.624,1.305,9.019,3.378,12.844,6.275
							c7.532,5.706,12.478,14.289,15.403,23.274c2.925,8.986,3.997,18.452,4.105,28.506c-11.318,3.738-23.119,6.009-35.016,6.738
							c-0.827-13.18-2.944-26.28-6.316-39.048L279.339,127.831z"/>
						<path style="fill:none;stroke:#2E2854;stroke-linecap:round;stroke-linejoin:round;stroke-miterlimit:10;" d="
							M278.871,187.143c10.681-0.276,21.301-2.792,30.969-7.341"/>
						<path style="fill:none;stroke:#2E2854;stroke-linecap:round;stroke-linejoin:round;stroke-miterlimit:10;" d="M311.69,185.887
							c-11.318,3.738-23.119,6.009-35.016,6.738c-0.827-13.18-2.944-26.28-6.316-39.048"/>
					</g>
				</g>
				<g>
					<path style="fill:#2E2854;" d="M253.228,168.17c-1.239,9.052-2.506,18.405-1.61,27.485c0.968,9.81,4.76,18.386,10.364,23.811
						c6.336,6.133,15.518,8.132,22.58,5.122l2.526,5.928c-2.973,1.268-6.185,1.881-9.447,1.881c-7.187,0-14.622-2.976-20.314-8.487
						c-6.699-6.485-11.004-16.295-12.121-27.622c-0.976-9.895,0.365-19.693,1.663-29.17c0.016-0.118,0.039-0.236,0.068-0.351
						L253.228,168.17z"/>
					<g>
						<path style="fill:#905031;" d="M293.5,232.472c-3.351,1.618-7.319,1.62-10.908,0.633c-3.589-0.986-6.856-2.893-9.934-4.986
							c-14.668-9.972-26.005-24.758-32.103-41.54c-1.592-3.775-3.156-7.621-3.7-11.683c-0.542-4.061,0.038-8.423,2.423-11.756
							c2.385-3.331,6.812-5.348,10.883-3.93c0.734,0.828,1.896,1.121,2.996,1.235c1.1,0.113,2.234,0.093,3.274,0.47
							c2.38,0.863,3.613,3.64,3.495,6.169c-0.116,2.528-1.285,4.872-2.159,7.579c-0.188,5.894,2.602,11.809,7.272,15.411
							c2.941,2.269,6.472,3.606,9.902,5.032c3.999,1.663,7.949,3.497,11.556,5.894c3.607,2.397,6.876,5.384,9.206,9.034
							L293.5,232.472z"/>
						<path style="fill:#824629;" d="M282.592,233.105c3.588,0.987,7.557,0.985,10.908-0.633l1.133-11.528
							c-5.072,0.957-11.495,0.86-19.42-1.548c-19.29-5.86-33.337-33.338-38.362-44.558c0.003,0.019,0.003,0.039,0.006,0.059
							c0.543,4.061,2.107,7.908,3.7,11.683c6.098,16.782,17.435,31.568,32.103,41.54
							C275.736,230.212,279.003,232.119,282.592,233.105z"/>
						<path style="fill:none;stroke:#2E2854;stroke-linecap:round;stroke-linejoin:round;stroke-miterlimit:10;" d="
							M253.158,160.446c1.1,0.113,2.234,0.093,3.274,0.47c2.38,0.863,3.613,3.64,3.495,6.169c-0.116,2.528-1.285,4.872-2.159,7.579
							c-0.188,5.894,2.602,11.809,7.272,15.411c2.941,2.269,6.472,3.606,9.902,5.032c3.999,1.663,7.949,3.497,11.556,5.894
							c3.607,2.397,6.876,5.384,9.206,9.034"/>
					</g>
					<path style="fill:#2E2854;" d="M292.681,127.004c-10.392-2.653-23.803,1.895-31.889,10.811
						c-5.669,6.251-9.704,14.139-12.867,25.259c-0.089,0.314,0,0.655,0.238,0.879c0.719,0.675,2.507,1.86,5.565,0.891
						c0.271-0.086,0.483-0.318,0.563-0.592c2.85-9.808,6.397-16.73,11.275-22.108c6.468-7.132,17.512-10.837,25.589-8.782
						c0.346,0.243,0.69,0.49,1.028,0.746c4.146,3.14,7.508,7.152,10.18,11.623C303.725,132.895,296.621,128.044,292.681,127.004z"/>
				</g>
			</g>
		</g>
		
			<line style="fill:none;stroke:#2E2854;stroke-linecap:round;stroke-linejoin:round;stroke-miterlimit:10;" x1="57.163" y1="457.936" x2="451.162" y2="457.936"/>
	</g>
</g>
</svg>
